<?xml version="1.0" encoding="utf-8" ?>
<svg baseProfile="full" height="200mm" version="1.1" viewBox="0,0,200,200" width="200mm" xmlns="http://www.w3.org/2000/svg" xmlns:ev="http://www.w3.org/2001/xml-events" xmlns:xlink="http://www.w3.org/1999/xlink"><defs /><rect fill="#1a1a1a" height="200" width="200" x="0" y="0" /><text alignment-baseline="middle" fill="#e1ed5e" style="dominant-baseline: central; font-size:9.0px; font-family:Arial;" text-anchor="middle" x="100.0" y="100.0">2023</text><line stroke="#e1ed5e" stroke-width="0.3" x1="100.0" x2="100.0" y1="15.0" y2="10.0" /><path d="M 100.0 14.0 a86.0,86.0 0 0,1 42.46469731375804,11.215312516191453" fill="none" id="id1" stroke="none" /><text fill="#e1ed5e" style="font-size:6.75px; font-family:Arial;" text-anchor="middle"><textPath startOffset="22.20632615414155" xlink:href="#id1">January</textPath></text><line stroke="#e1ed5e" stroke-width="0.3" x1="143.23703022742887" x2="145.7803849466894" y1="26.81831364943548" y2="22.513508569990506" /><path d="M 143.74570117128098 25.957352633546492 a86.0,86.0 0 0,1 28.547481713284135,27.462654790039103" fill="none" id="id2" stroke="none" /><text fill="#e1ed5e" style="font-size:6.75px; font-family:Arial;" text-anchor="middle"><textPath startOffset="19.985693538727396" xlink:href="#id2">February</textPath></text><line stroke="#e1ed5e" stroke-width="0.3" x1="172.23445277983987" x2="176.4835382374775" y1="55.19839476539836" y2="52.563006222186495" /><path d="M 173.08426987136738 54.67131705675599 a86.0,86.0 0 0,1 12.851231095245387,41.99856678651699" fill="none" id="id3" stroke="none" /><text fill="#e1ed5e" style="font-size:6.75px; font-family:Arial;" text-anchor="middle"><textPath startOffset="22.20632615414155" xlink:href="#id3">March</textPath></text><line stroke="#e1ed5e" stroke-width="0.3" x1="184.98032266829074" x2="189.97916517819016" y1="98.17113171792111" y2="98.06355123074" /><path d="M 185.9800911702706 98.14961562048488 a86.0,86.0 0 0,1 -9.607161424134198,41.387399972396054" fill="none" id="id4" stroke="none" /><text fill="#e1ed5e" style="font-size:6.75px; font-family:Arial;" text-anchor="middle"><textPath startOffset="21.466115282336823" xlink:href="#id4">April</textPath></text><line stroke="#e1ed5e" stroke-width="0.3" x1="174.80103733775053" x2="179.2010983576182" y1="140.37084112569926" y2="142.7455964860345" /><path d="M 175.68104954172406 140.8457921977663 a86.0,86.0 0 0,1 -30.038265399797805,32.042727171017184" fill="none" id="id5" stroke="none" /><text fill="#e1ed5e" style="font-size:6.75px; font-family:Arial;" text-anchor="middle"><textPath startOffset="22.206326154141568" xlink:href="#id5">May</textPath></text><line stroke="#e1ed5e" stroke-width="0.3" x1="143.8653032363475" x2="146.44561519142675" y1="172.8068346515853" y2="177.08958963109032" /><path d="M 144.38136562736335 173.6633856474863 a86.0,86.0 0 0,1 -40.68145358897372,12.25698825130547" fill="none" id="id6" stroke="none" /><text fill="#e1ed5e" style="font-size:6.75px; font-family:Arial;" text-anchor="middle"><textPath startOffset="21.466115282336833" xlink:href="#id6">June</textPath></text><line stroke="#e1ed5e" stroke-width="0.3" x1="102.19456741930631" x2="102.32365962044197" y1="184.97166512339345" y2="189.96999836594603" /><path d="M 102.22038585953345 185.97133177190398 a86.0,86.0 0 0,1 -42.740103519485714,-10.115201625700543" fill="none" id="id7" stroke="none" /><text fill="#e1ed5e" style="font-size:6.75px; font-family:Arial;" text-anchor="middle"><textPath startOffset="22.20632615414155" xlink:href="#id7">July</textPath></text><line stroke="#e1ed5e" stroke-width="0.3" x1="58.666819895761336" x2="56.23545636021788" y1="174.27360380694188" y2="178.64263932499728" /><path d="M 58.180547188652646 175.14741091055294 a86.0,86.0 0 0,1 -31.652253787137756,-30.449443065178592" fill="none" id="id8" stroke="none" /><text fill="#e1ed5e" style="font-size:6.75px; font-family:Arial;" text-anchor="middle"><textPath startOffset="22.20632615414155" xlink:href="#id8">August</textPath></text><line stroke="#e1ed5e" stroke-width="0.3" x1="26.63291911575756" x2="22.317208475507996" y1="142.92168965132927" y2="145.44649492493687" /><path d="M 25.769776987707644 143.4266507060508 a86.0,86.0 0 0,1 -11.730757126820373,-40.83630448921669" fill="none" id="id9" stroke="none" /><text fill="#e1ed5e" style="font-size:6.75px; font-family:Arial;" text-anchor="middle"><textPath startOffset="21.46611528233685" xlink:href="#id9">September</textPath></text><line stroke="#e1ed5e" stroke-width="0.3" x1="15.007084014347285" x2="10.007500721073583" y1="101.09737516637583" y2="101.16192664675087" /><path d="M 14.007167355692545 101.11028546245083 a86.0,86.0 0 0,1 10.666146001902534,-42.60595125391555" fill="none" id="id10" stroke="none" /><text fill="#e1ed5e" style="font-size:6.75px; font-family:Arial;" text-anchor="middle"><textPath startOffset="22.20632615414155" xlink:href="#id10">October</textPath></text><line stroke="#e1ed5e" stroke-width="0.3" x1="26.266209847984243" x2="21.928928074336255" y1="57.711370442889674" y2="55.22380399835377" /><path d="M 25.398753493254645 57.213857153982495 a86.0,86.0 0 0,1 29.58750427330803,-30.492523968695096" fill="none" id="id11" stroke="none" /><text fill="#e1ed5e" style="font-size:6.75px; font-family:Arial;" text-anchor="middle"><textPath startOffset="21.46611528233685" xlink:href="#id11">November</textPath></text><path d="M 84.80347519578584 85.50635884689758 l -2.2124223616293506 -2.1100913663933825 a24.057335160031606,24.057335160031606 0 0,0 0.2883852847548293,-0.2972063857220521 l 2.175772813171403 2.1478619476655583" fill="#ff0000" stroke="none" /><path d="M 85.05521093208273 85.24692304244772 l -13.680516745817982 -13.505022750934199 a40.22347986020888,40.22347986020888 0 0,0 0.49065788251793335,-0.48855084163983986 l 13.446023063132737 13.738509443224148" fill="#ffe215" stroke="none" /><path d="M 85.31137513191541 84.99185889309783 l -6.213324837353098 -6.3484810007388575 a29.88305220919089,29.88305220919089 0 0,0 0.3707159920237567,-0.35662849060895463 l 6.103125601716913 6.454492578110126" fill="#ff5607" stroke="none" /><path d="M 85.57189188830299 84.74124197986013 l -3.463655778468522 -3.663064136999599 a26.041324252960823,26.041324252960823 0 0,0 0.32835892179646825,-0.3051738319617483 l 3.4000889728771977 3.722142555035995" fill="#ff1e03" stroke="none" /><path d="M 85.83668400450813 84.49514656593479 l -7.10866383579567 -7.781990525462676 a31.540041654032496,31.540041654032496 0 0,0 0.4039964121761965,-0.36271196775748016 l 6.973656436023503 7.903201501989435" fill="#ff6d0a" stroke="none" /><path d="M 86.10567301691215 84.25364557470407 l -15.37853812986639 -17.42840169448695 a44.243248926003226,44.243248926003226 0 0,0 0.5753859833193313,-0.4989690547868897 l 15.076258347900286 17.690535742693523" fill="#e9ff1a" stroke="none" /><path d="M 86.37877921826538 84.01681056812374 l -2.1081605626535858 -2.4737231827918533 a24.25017650951602,24.25017650951602 0 0,0 0.32003588795350446,-0.26802085242163937 l 2.0652671377409706 2.509645192607305" fill="#ff0300" stroke="none" /><path d="M 86.65592168130627 83.78471172551755 l -3.3463745003014287 -4.066405030068546 a26.266295867574705,26.266295867574705 0 0,0 0.35158888098450264,-0.28429375705504745 l 3.2758822207524254 4.123404884387728" fill="#ff2103" stroke="none" /><path d="M 87.22198572758235 83.33499621200491 l -7.418278143530514 -9.674870502312148 a33.19155321734242,33.19155321734242 0 0,0 0.45638993591622423,-0.34374343777645533 l 7.250642053855899 9.801130529594458" fill="#ff840c" stroke="none" /><path d="M 87.51073957382395 83.11751280151077 l -9.821482443872249 -13.276290666606586 a37.514279011192585,37.514279011192585 0 0,0 0.5224393619254426,-0.3795744147428199 l 9.591497765593024 13.443384316166073" fill="#ffbf11" stroke="none" /><path d="M 87.80319425747018 82.90503203632743 l -12.623230535557672 -17.692642332651634 a42.73420212165545,42.73420212165545 0 0,0 0.6024888820457169,-0.42208196440098206 l 12.316810513928296 17.907309139816558" fill="#fcff18" stroke="none" /><path d="M 88.39885842347998 82.49532879139004 l -7.873898787773071 -11.880728159442459 a35.25306927362185,35.25306927362185 0 0,0 0.5087067824865804,-0.33087704192901457 l 7.668224979502204 12.014504125531008" fill="#ffa10e" stroke="none" /><line stroke="#e1ed5e" stroke-width="0.3" x1="56.762969772571076" x2="54.21961505331055" y1="26.818313649435495" y2="22.513508569990535" /><path d="M 56.25429882871897 25.957352633546506 a86.0,86.0 0 0,1 42.265352541879196,-11.944610805530505" fill="none" id="id12" stroke="none" /><text fill="#e1ed5e" style="font-size:6.75px; font-family:Arial;" text-anchor="middle"><textPath startOffset="22.20632615414155" xlink:href="#id12">December</textPath></text><path d="M 89.63071344664047 81.73862282372117 l -21.76293849951292 -38.326766876261644 a65.07455673425302,65.07455673425302 0 0,0 0.9788326136507154,-0.544719289737042 l 21.09998179679016 38.69570156355887" fill="#35ff62" stroke="none" /><path d="M 89.94658935756843 81.56283822128135 l -3.674897332462985 -6.739471712498769 a28.67628486754593,28.67628486754593 0 0,0 0.43540835605630573,-0.2325800646590016 l 3.5583439298783737 6.80173050365952" fill="#ff4406" stroke="none" /><path d="M 90.91171255644093 81.06846463323043 l -4.162489379120568 -8.670755121249103 a30.618124152035005,30.618124152035005 0 0,0 0.4770913024609311,-0.22400076360134766 l 4.012619865360028 8.741120867490459" fill="#ff6008" stroke="none" /><path d="M 91.56875222667455 80.76684994638697 l -6.3142167490032985 -14.403832204864482 a36.72703771659765,36.72703771659765 0 0,0 0.5811900553082547,-0.2488352506117176 l 6.065342935904736 14.510386983438986" fill="#ffb410" stroke="none" /><path d="M 91.90106846888425 80.62456947434976 l -13.504763641015169 -32.308040719510664 a56.01696925967815,56.01696925967815 0 0,0 0.8928468184755292,-0.3642146353046793 l 12.946632952951258 32.53571624099892" fill="#62ff29" stroke="none" /><path d="M 92.23578459929587 80.48803036053334 l -3.631685210493587 -9.126657094137876 a30.82267820821262,30.82267820821262 0 0,0 0.4946553074269173,-0.19191857435035733 l 3.4740467380669937 9.187818372378784" fill="#ff6309" stroke="none" /><path d="M 93.25333710446033 80.11325718540243 l -7.0790642245969035 -20.866542731169947 a43.0346489839913,43.0346489839913 0 0,0 0.703549249284403,-0.23194912601472 l 6.718832153070092 20.9853055814439" fill="#f8ff18" stroke="none" /><path d="M 94.28887869178378 79.79150937346287 l -8.90209614046555 -31.499580678197574 a53.733330087181315,53.733330087181315 0 0,0 0.8922345533542183,-0.24388140778722472 l 8.35856369788761 31.648148626811096" fill="#7bff26" stroke="none" /><path d="M 94.63758080256005 79.69619591428918 l -2.552948565653699 -9.666265468890476 a30.997711462826764,30.997711462826764 0 0,0 0.5170582284064438,-0.1318096552025007 l 2.386181448562256 9.708778120261838" fill="#ff6609" stroke="none" /><path d="M 95.692805502759 79.44645832069477 l -6.58189077346605 -31.40818610065647 a53.0904259910539,53.0904259910539 0 0,0 0.8960490622346903,-0.17973901229236022 l 6.040275301764224 31.516829069026038" fill="#82ff25" stroke="none" /><path d="M 96.04723909329186 79.375362276772 l -0.5859741933806468 -3.0574845630370806 a24.11312987337794,24.11312987337794 0 0,0 0.4083212680215604,-0.07461810180707851 l 0.5332578042561932 3.067118146194895" fill="#ff0100" stroke="none" /><path d="M 96.75951476605007 79.25152402106235 l -9.72145570184976 -62.24542793681294 a84.0,84.0 0 0,0 1.430524078285405,-0.2108220633561242 l 8.648562643135705 62.403544484330034" fill="#4dd2ff" stroke="none" /><path d="M 98.91598698831166 79.02799685794201 l -0.41414792723294114 -8.01236842875019 a29.023064647855215,29.023064647855215 0 0,0 0.499140279510963,-0.021494030405213662 l 0.276166815332654 8.018310185679596" fill="#ff4906" stroke="none" /></svg>