<?xml version="1.0" encoding="utf-8" ?>
<svg baseProfile="full" height="200mm" version="1.1" viewBox="0,0,200,200" width="200mm" xmlns="http://www.w3.org/2000/svg" xmlns:ev="http://www.w3.org/2001/xml-events" xmlns:xlink="http://www.w3.org/1999/xlink"><defs /><rect fill="#1a1a1a" height="200" width="200" x="0" y="0" /><text alignment-baseline="middle" fill="#e1ed5e" style="dominant-baseline: central; font-size:9.0px; font-family:Arial;" text-anchor="middle" x="100.0" y="100.0">2025</text><line stroke="#e1ed5e" stroke-width="0.3" x1="100.0" x2="100.0" y1="15.0" y2="10.0" /><path d="M 100.0 14.0 a86.0,86.0 0 0,1 42.46469731375804,11.215312516191453" fill="none" id="id25" stroke="none" /><text fill="#e1ed5e" style="font-size:6.75px; font-family:Arial;" text-anchor="middle"><textPath startOffset="22.20632615414155" xlink:href="#id25">January</textPath></text><path d="M 100.0 79.0 l 0.0 -10.630716234094344 a31.630716234094344,31.630716234094344 0 0,0 0.544470784001608,0.004686431933463068 l -0.1829903047290796 10.629141178769439" fill="#ff810b" stroke="none" /><path d="M 100.36148047927253 79.00311137660856 l 0.13263169300264901 -7.704020121675515 a28.70516172453051,28.70516172453051 0 0,0 0.49396575617471816,0.012757678141058352 l -0.265224084372235 7.7005956513920975" fill="#ff5908" stroke="none" /><path d="M 101.08401301168833 79.027996857942 l 3.2520390350649873 -62.916009426173986 a84.0,84.0 0 0,0 1.4433518046415523,0.08706692247878367 l -4.334552888546152 62.8507092343149" fill="#4dd2ff" stroke="none" /><path d="M 101.80526077348638 79.07773832637324 l 0.1293544446540419 -1.4991670895678273 a22.504737364058933,22.504737364058933 0 0,0 0.3856614047027686,0.03662319739264941 l -0.1551409764470547 1.4967183476599997" fill="#ff0000" stroke="none" /><path d="M 102.88285421437855 79.19881850522331 l 2.7812956174908314 -20.068387309181034 a41.260201738955416,41.260201738955416 0 0,0 0.7026632388391417,0.10355429601305385 l -3.126327836758629 20.017538529007012" fill="#fffd17" stroke="none" /><path d="M 103.2404852339499 79.25152402106235 l 0.5868551259582101 -3.757569809759111 a24.80312106224303,24.80312106224303 0 0,0 0.42126423235732413,0.06951220787018612 l -0.6514485644544095 3.7469113389493" fill="#ff2203" stroke="none" /><path d="M 103.59715602781102 79.31037775812273 l 0.702987741778069 -4.043347218082554 a25.104003958461316,25.104003958461316 0 0,0 0.42510029940385397,0.07768436254332206 l -0.7724831622848238 4.030647374188493" fill="#ff2603" stroke="none" /><path d="M 103.95276090670814 79.375362276772 l 6.154317614778514 -32.11187679555244 a53.69630340935061,53.69630340935061 0 0,0 0.9062749340818465,0.18179022598489236 l -6.706158958327486 32.00118261349034" fill="#73ff27" stroke="none" /><path d="M 105.71112130821622 79.79150937346287 l 3.236992186591548 -11.453919945073013 a32.90253756659462,32.90253756659462 0 0,0 0.5436905903490837,0.15871819230053189 l -3.4336729946640587 11.396503423853778" fill="#ff920d" stroke="none" /><path d="M 106.40334571778207 80.00007090966166 l 5.0542233885740036 -15.786139595352383 a37.575505343293784,37.575505343293784 0 0,0 0.6143007832035516,0.2025253099468854 l -5.325206994019973 15.696800561146262" fill="#ffcf13" stroke="none" /><path d="M 108.76106565485865 80.91482961587045 l 0.6300812737056758 -1.3725737185696512 a22.510285080500594,22.510285080500594 0 0,0 0.35075503562844657,0.16468419233910436 l -0.6536145206337204 1.3615245435905439" fill="#ff0000" stroke="none" /><path d="M 109.73455568895987 81.39251694778311 l 7.6358412721593405 -14.595816347556879 a37.47252035315849,37.47252035315849 0 0,0 0.5689666063653934,0.30392225655899485 l -7.885952925053045 14.46221536449613" fill="#ffce13" stroke="none" /><path d="M 110.05341064243156 81.56283822128135 l 9.28562255054944 -17.0290990062643 a40.39621094740991,40.39621094740991 0 0,0 0.6076280919548255,0.33814437530788377 l -9.577374731576302 16.86673923339624" fill="#fff316" stroke="none" /><line stroke="#e1ed5e" stroke-width="0.3" x1="143.23703022742887" x2="145.7803849466894" y1="26.81831364943548" y2="22.513508569990506" /><path d="M 143.74570117128098 25.957352633546492 a86.0,86.0 0 0,1 28.547481713284135,27.462654790039103" fill="none" id="id26" stroke="none" /><text fill="#e1ed5e" style="font-size:6.75px; font-family:Arial;" text-anchor="middle"><textPath startOffset="19.985693538727396" xlink:href="#id26">February</textPath></text><path d="M 110.68208982089419 81.91981866633111 l 8.332828720381405 -14.103893228103209 a37.38157009181198,37.38157009181198 0 0,0 0.5511786726080581,0.33207898306609396 l -8.5743694592071 13.9583676355785" fill="#ffcd13" stroke="none" /><path d="M 111.90073688211348 82.69761687909136 l 9.04985109876093 -13.157503812497502 a36.96933660130034,36.96933660130034 0 0,0 0.5212128265664483,0.36514289352722384 l -9.27499506491103 12.999776076206341" fill="#ffc712" stroke="none" /><path d="M 114.16331599549186 84.49514656593476 l 9.782995215523297 -10.70963233547361 a35.50528249114693,35.50528249114693 0 0,0 0.44769137558536043,0.4160803424378868 l -9.965894474903504 10.539647406961082" fill="#ffb410" stroke="none" /><path d="M 114.94478906791727 85.2469230424477 l 6.942637811654551 -6.8535774883322755 a30.755600656668477,30.755600656668477 0 0,0 0.3686801798361706,0.3799573332239152 l -7.05958225519383 6.7330559595582455" fill="#ff750a" stroke="none" /><path d="M 116.38621287248628 86.86637796730983 l 24.70629347964612 -19.802203408160405 a52.66272567737282,52.66272567737282 0 0,0 0.5608477953592335,0.7122197451208814 l -25.04349535559932 19.373991269086485" fill="#7eff26" stroke="none" /><path d="M 116.60985879189232 87.15038557335679 l 24.95509805390834 -19.30560590486899 a52.55096414112083,52.55096414112083 0 0,0 0.5473409629563324,0.7202365486640219 l -25.283714957088787 18.873184580323937" fill="#7fff26" stroke="none" /><line stroke="#e1ed5e" stroke-width="0.3" x1="172.23445277983987" x2="176.4835382374775" y1="55.19839476539836" y2="52.563006222186495" /><path d="M 173.08426987136738 54.67131705675599 a86.0,86.0 0 0,1 12.851231095245387,41.99856678651699" fill="none" id="id27" stroke="none" /><text fill="#e1ed5e" style="font-size:6.75px; font-family:Arial;" text-anchor="middle"><textPath startOffset="22.20632615414155" xlink:href="#id27">March</textPath></text><path d="M 118.56541770881063 90.18545643968196 l 9.342011162765626 -4.9386217394089815 a31.567078936498987,31.567078936498987 0 0,0 0.24981670199695802,0.4825663531989085 l -9.4256372979227 4.777082663949728" fill="#ff800b" stroke="none" /><path d="M 119.04729006885535 91.15688171328212 l 19.239978183999256 -8.932577931029615 a42.2124423161192,42.2124423161192 0 0,0 0.30030671796888453,0.6616860458804963 l -19.390887218931486 8.600069876307057" fill="#f5ff19" stroke="none" /><path d="M 119.196687751892 91.48605970444005 l 1.7667254588297319 -0.7835620013999332 a22.93268938448862,22.93268938448862 0 0,0 0.1569352625163405,0.36222822313164804 l -1.779951431188753 0.7530346336816823" fill="#ff0601" stroke="none" /><path d="M 119.47837535516314 92.15188598940014 l 3.8251893474819743 -1.541223103250911 a25.12400802594805,25.12400802594805 0 0,0 0.15816932923115518,0.40252369053983433 l -3.85115222659483 1.4751504078152922" fill="#ff2603" stroke="none" /><path d="M 119.61058180528143 92.48833698450437 l 11.415483806822323 -4.372601912942887 a33.22427576721396,33.22427576721396 0 0,0 0.19997123844440423,0.5358234995863032 l -11.489059633768353 4.17545527632725" fill="#ff960d" stroke="none" /><path d="M 119.97218684219823 93.5106431181261 l 21.393003897445595 -6.951008327867405 a43.493935461146066,43.493935461146066 0 0,0 0.2252250938447234,0.7140250957947701 l -21.509484475058525 6.581733065646215" fill="#e6ff1a" stroke="none" /><path d="M 120.08093135843002 93.85539295169968 l 8.376131337960384 -2.5630303066154414 a29.759492025419696,29.759492025419696 0 0,0 0.14567144215068892,0.49113168577911703 l -8.419008677222775 2.4184692340897946" fill="#ff6709" stroke="none" /><path d="M 120.28053869075195 94.5502522615342 l 22.160719965737343 -5.954986470409828 a43.94688155856028,43.94688155856028 0 0,0 0.19002562135136297,0.7322462353962642 l -22.259941918959008 5.572643809464713" fill="#e0ff1b" stroke="none" /><path d="M 120.6074358757038 95.95851677861258 l 3.6175446712046075 -0.7094645922703184 a24.686457575484376,24.686457575484376 0 0,0 0.07819056451730064,0.41769712220761857 l -3.6292209596317675 0.6470893926001371" fill="#ff2003" stroke="none" /><path d="M 120.67395015179393 96.31383870115 l 21.67224924194741 -3.864157832835133 a43.01404331244379,43.01404331244379 0 0,0 0.12369228591080858,0.7300388732644314 l -21.73555338937844 3.4905331712548633" fill="#ecff1a" stroke="none" /><path d="M 120.73433829027371 96.67025291283417 l 11.02240836971486 -1.7700990332460629 a32.163634571959925,32.163634571959925 0 0,0 0.08308036290956249,0.5473957878435805 l -11.051244626063722 1.5801041330104002" fill="#ff880c" stroke="none" /><path d="M 120.78858239683441 97.02765380044208 l 1.5237890738097823 -0.21787097244091386 a22.539285841581876,22.539285841581876 0 0,0 0.05160852579249154,0.38454346190478056 l -1.52731359866011 0.19160916847146897" fill="#ff0100" stroke="none" /><path d="M 120.91429891909075 98.10471618934814 l 8.777548222846182 -0.7954340285722402 a29.813516216482547,29.813516216482547 0 0,0 0.04191711692607196,0.5114949986618648 l -8.789939823591748 0.6442251127026067" fill="#ff6809" stroke="none" /><path d="M 120.96714384426684 98.82574320788733 l 31.22416477332249 -1.7486972873105269 a52.27309399458647,52.27309399458647 0 0,0 0.04258114403422185,0.8988206506617687 l -31.249639525590204 1.2109655300257582" fill="#82ff25" stroke="none" /><line stroke="#e1ed5e" stroke-width="0.3" x1="184.98032266829074" x2="189.97916517819016" y1="98.17113171792111" y2="98.06355123074" /><path d="M 185.9800911702706 98.14961562048488 a86.0,86.0 0 0,1 -9.607161424134198,41.387399972396054" fill="none" id="id28" stroke="none" /><text fill="#e1ed5e" style="font-size:6.75px; font-family:Arial;" text-anchor="middle"><textPath startOffset="21.466115282336823" xlink:href="#id28">April</textPath></text><path d="M 120.99513854157772 99.54816195383933 l 2.6466752556161164 -0.05695930864905384 a23.647288097569362,23.647288097569362 0 0,0 0.005255320249365998,0.4070303448795097 l -2.647263582983198 0.011392705709081437" fill="#ff1101" stroke="none" /><path d="M 120.99980553446 99.90962569577887 l 14.860272114591526 -0.06395234235331718 a35.86040972590591,35.86040972590591 0 0,0 -0.002656577933815444,0.6172951535070185 l -14.859171239368207 -0.19185228935738596" fill="#ffb911" stroke="none" /><path d="M 120.9764740272857 100.99374915477107 l 19.267888402525994 0.9128058313960128 a40.289498126649804,40.289498126649804 0 0,0 -0.038780846573792604,0.6924580670742329 l -19.249321205064675 -1.244335614805669" fill="#fff116" stroke="none" /><path d="M 120.8583938346157 102.4346265915055 l 14.56520008850042 1.7000744988912924 a35.664082205164874,35.664082205164874 0 0,0 -0.07642047015851237,0.6091463379346426 l -14.53377810909506 -1.95053859111333" fill="#ffb710" stroke="none" /><path d="M 120.70491114924044 103.5080841355445 l 18.832125839389406 3.1907735039067386 a40.10052353166874,40.10052353166874 0 0,0 -0.12116766105454584,0.6795725909858213 l -18.77441173599567 -3.514464845625778" fill="#ffef16" stroke="none" /><path d="M 120.49622156327973 104.57218783832717 l 2.3654626681260678 0.5276748014179988 a23.42360358358161,23.42360358358161 0 0,0 -0.09117295718043025,0.3927707133153123 l -2.3560291450150848 -0.5683141720818761" fill="#ff0d01" stroke="none" /><path d="M 120.41448212921028 104.9243191809786 l 17.97109435970659 4.33493262765921 a39.48653221596258,39.48653221596258 0 0,0 -0.16507003648976634,0.6593727412798062 l -17.893813008921764 -4.6436332083364125" fill="#ffe715" stroke="none" /><path d="M 120.32669344350535 105.2749913415812 l 3.9591805593783165 1.0274491140687803 a25.09032546183796,25.09032546183796 0 0,0 -0.11208436651361456,0.4171076242049539 l -3.9409081165229245 -1.0954476714492825" fill="#ff2603" stroke="none" /><path d="M 120.23288151984713 105.62410040840565 l 9.237312492630158 2.5676803826192964 a30.587540072082575,30.587540072082575 0 0,0 -0.14537436755882527,0.5060672447975776 l -9.191745488185234 -2.726305102921456" fill="#ff730a" stroke="none" /><path d="M 120.13307415673323 105.97154293290107 l 10.819350458350678 3.209058649721245 a32.285229362222275,32.285229362222275 0 0,0 -0.1626149004772391,0.5314349035947901 l -10.762508785367306 -3.394820525868092" fill="#ff8a0c" stroke="none" /><path d="M 120.02730092923936 106.31721596034902 l 4.658142997425776 1.4693190756406016 a25.88438273792177,25.88438273792177 0 0,0 -0.13768981568986452,0.4237656789853939 l -4.632160930719666 -1.549283654603791" fill="#ff3104" stroke="none" /><path d="M 119.9155931802556 106.66101706037122 l 9.155241579067923 3.0620840563488922 a30.653745756919445,30.653745756919445 0 0,0 -0.1716743603308934,0.498966050108362 l -9.1011763877938 -3.2192228095465545" fill="#ff740a" stroke="none" /><path d="M 119.79798401119884 107.00284435728193 l 2.2408932665746373 0.7926376119016278 a23.376946994777263,23.376946994777263 0 0,0 -0.13745170502960793,0.3782080590831656 l -2.2269173005398026 -0.8310934679909245" fill="#ff0d01" stroke="none" /><path d="M 119.54520255179757 107.68017299344265 l 1.5159201176292292 0.5956719413256553 a22.628753776577568,22.628753776577568 0 0,0 -0.14557549894422794,0.36130644981979904 l -1.5054420044276087 -0.6216777589882678" fill="#ff0200" stroke="none" /><path d="M 119.26925614724726 108.34839909993367 l 15.053842497676394 6.522072476373115 a37.40596243235707,37.40596243235707 0 0,0 -0.26105606088900046,0.5886125005173536 l -14.93934535205612 -6.780233313383156" fill="#ffcd13" stroke="none" /><path d="M 118.97047184881838 109.00673069616215 l 13.266757637849468 6.298742287889126 a35.68608227645072,35.68608227645072 0 0,0 -0.26823485102462424,0.55264324164922 l -13.15636953021013 -6.5261744855036214" fill="#ffb711" stroke="none" /><path d="M 118.81262510543309 109.33194174019688 l 1.7760289619676783 0.8809934131520112 a22.982530773472437,22.982530773472437 0 0,0 -0.17884932146089869,0.3528866786818765 l -1.7606009707205106 -0.911434303536582" fill="#ff0701" stroke="none" /><line stroke="#e1ed5e" stroke-width="0.3" x1="174.80103733775053" x2="179.2010983576182" y1="140.37084112569926" y2="142.7455964860345" /><path d="M 175.68104954172406 140.8457921977663 a86.0,86.0 0 0,1 -30.038265399797805,32.042727171017184" fill="none" id="id29" stroke="none" /><text fill="#e1ed5e" style="font-size:6.75px; font-family:Arial;" text-anchor="middle"><textPath startOffset="22.206326154141568" xlink:href="#id29">May</textPath></text><path d="M 118.48025628344425 109.97397251340804 l 17.26171781139766 9.316315550197482 a40.615316393858514,40.615316393858514 0 0,0 -0.33734615793713185,0.6123812654712644 l -17.09879524400902 -9.61206733406655" fill="#fff517" stroke="none" /><path d="M 118.30583269289576 110.29060199501025 l 13.791266741134635 7.752744134666753 a36.82100123072924,36.82100123072924 0 0,0 -0.31534207481035376,0.5498254876944402 l -13.6557726701719 -7.988989468219509" fill="#ffc512" stroke="none" /><path d="M 118.12598468904814 110.60418214915192 l 30.19663517865864 17.665833068890255 a55.98454564705537,55.98454564705537 0 0,0 -0.493781358056201,0.8276059583528426 l -29.88807294490421 -18.1830011211292" fill="#5bff2a" stroke="none" /><path d="M 117.94076556474637 110.91462005526583 l 14.692113773061822 8.938238396961898 a38.197392615205274,38.197392615205274 0 0,0 -0.3465692364610681,0.5587799592224795 l -14.53607989693279 -9.189814687549651" fill="#ffd714" stroke="none" /><path d="M 117.75023020441432 111.22182372390056 l 9.138076375650654 5.777157878075823 a31.8111050774395,31.8111050774395 0 0,0 -0.2965933173697274,0.46031941503156476 l -9.037278194903877 -5.933598893028841" fill="#ff830c" stroke="none" /><path d="M 117.35343817320211 111.8261652097733 l 1.371153733210407 0.9344252369530043 a22.65928089350523,22.65928089350523 0 0,0 -0.2224268384640718,0.3204224501850046 l -1.3548659875841988 -0.9578889493250284" fill="#ff0200" stroke="none" /><path d="M 117.14729908036423 112.12312394758627 l 9.31557998875524 6.586106086914722 a32.408629361802944,32.408629361802944 0 0,0 -0.32596940107724537,0.452742988006797 l -9.200830795302393 -6.74548268037265" fill="#ff8b0c" stroke="none" /><path d="M 116.93607887273984 112.41649034213515 l 1.861435993288948 1.364690269031318 a23.308099540206268,23.308099540206268 0 0,0 -0.240005424777091,0.32152648761488634 l -1.837669301816765 -1.3965296361555195" fill="#ff0c01" stroke="none" /><path d="M 116.71984013943494 112.70617746262583 l 12.166757808492287 9.246080259755171 a36.28136105654016,36.28136105654016 0 0,0 -0.3821518917979306,0.4939828347422515 l -12.005799099476288 -9.454141088610676" fill="#ffbf11" stroke="none" /><path d="M 116.498646956653 112.99209946851258 l 8.232886623795965 6.483106294132303 a31.479078651355586,31.479078651355586 0 0,0 -0.33889789657561636,0.42282723391183435 l -8.120070815165494 -6.623861361622387" fill="#ff7f0b" stroke="none" /><path d="M 115.80600337817218 113.82643327865902 l 1.7083212325096815 1.4943682457027982 a23.269691143571798,23.269691143571798 0 0,0 -0.2663173494178057,0.29921036528174194 l -1.6823450334435373 -1.5235527807254068" fill="#ff0b01" stroke="none" /><path d="M 115.32070863581623 114.36230785411682 l 2.066475791030416 1.9372055294149386 a23.832505508928552,23.832505508928552 0 0,0 -0.28314542803344817,0.2968768492925668 l -2.032823811618003 -1.9724894952900125" fill="#ff1302" stroke="none" /><path d="M 115.07121518719521 114.62390073753431 l 32.847353372496904 31.872442218078607 a66.76899820317726,66.76899820317726 0 0,0 -0.8074577642546173,0.817950452150251 l -32.293854983186755 -32.43313316420952" fill="#37ff7c" stroke="none" /><path d="M 114.81725581225074 114.88116024355365 l 11.077337072275807 11.125111838057283 a36.69953852895359,36.69953852895359 0 0,0 -0.4514917869876921,0.44187973999214375 l -10.884195332912322 -11.314141680971998" fill="#ffc412" stroke="none" /><path d="M 114.29624159901734 115.38237550388516 l 1.2090057194238517 1.300857979610586 a22.77592970376536,22.77592970376536 0 0,0 -0.28947170948790524,0.26442554330921425 l -1.1864344604690824 -1.3214762895063832" fill="#ff0400" stroke="none" /><path d="M 113.75828350139079 115.86535959552629 l 5.148682015643551 5.937200786198847 a28.85870725207725,28.85870725207725 0 0,0 -0.3780965079239421,0.32222204668134663 l -5.045720031142562 -6.0249472231031405" fill="#ff5b08" stroke="none" /><path d="M 113.48314897796784 116.09983520530334 l 0.9758106790490614 1.1651870901921078 a22.51982480454049,22.51982480454049 0 0,0 -0.2993312287089268,0.2463292228611495 l -0.9556093217954434 -1.1818114319104356" fill="#ff0000" stroke="none" /><path d="M 113.20401910651253 116.32954008644616 l 13.829357001268633 17.102901601422847 a42.994552922405354,42.994552922405354 0 0,0 -0.5794898123168644,0.4603817540362269 l -13.532909696234418 -17.3384172694642" fill="#ecff1a" stroke="none" /><path d="M 112.92097659922987 116.55440617244103 l 2.5347927729988964 3.2475864966501744 a25.119707811880836,25.119707811880836 0 0,0 -0.3431486914221987,0.26311178397168705 l -2.478515353083204 -3.290737622449233" fill="#ff2603" stroke="none" /><path d="M 112.34349029814194 116.9893568818739 l 4.443533664128625 6.115999398311667 a28.559791006661033,28.559791006661033 0 0,0 -0.4002079055051208,0.2855377143989688 l -4.33759843077462 -6.191581374554855" fill="#ff5708" stroke="none" /><path d="M 112.04921762599082 117.19931262002967 l 1.0751049644376203 1.5346279697714376 a22.87374856642059,22.87374856642059 0 0,0 -0.3244185015893127,0.22313800359896344 l -1.0485295782254243 -1.552906762735495" fill="#ff0500" stroke="none" /><path d="M 111.45004920935366 117.60387380957326 l 0.9706693455432021 1.4923552167622647 a22.78025927082962,22.78025927082962 0 0,0 -0.33055045494813845,0.21097293980138201 l -0.9448370885481331 -1.5088425853874556" fill="#ff0400" stroke="none" /><line stroke="#e1ed5e" stroke-width="0.3" x1="143.8653032363475" x2="146.44561519142675" y1="172.8068346515853" y2="177.08958963109032" /><path d="M 144.38136562736335 173.6633856474863 a86.0,86.0 0 0,1 -40.68145358897372,12.25698825130547" fill="none" id="id30" stroke="none" /><text fill="#e1ed5e" style="font-size:6.75px; font-family:Arial;" text-anchor="middle"><textPath startOffset="21.466115282336833" xlink:href="#id30">June</textPath></text><path d="M 110.8373102113329 117.98757091392108 l 4.757994987192838 7.897233775841678 a30.21980572509241,30.21980572509241 0 0,0 -0.4478749749013904,0.2646124296064531 l -4.621352141263065 -7.977964777741881" fill="#ff6e0a" stroke="none" /><path d="M 110.5260780823613 118.17145234162733 l 1.8253841453354624 3.1512098563764934 a24.64172360798653,24.64172360798653 0 0,0 -0.3688645810170269,0.2094509358756839 l -1.7708707973972364 -3.182163958046806" fill="#ff1f03" stroke="none" /><path d="M 109.89434966115114 118.52300852407294 l 6.950155195045126 13.011242611217044 a35.75117254739985,35.75117254739985 0 0,0 -0.5453059910608177,0.2852783217702611 l -6.725158301457814 -13.128950351932021" fill="#ffb811" stroke="none" /><path d="M 109.2508944713604 118.85261126421891 l 0.9354086698307548 1.9062909084191513 a23.123425159292424,23.123425159292424 0 0,0 -0.3588395872313382,0.1722648085168466 l -0.9024564145991839 -1.922109993435558" fill="#ff0901" stroke="none" /><path d="M 108.92500713936063 119.00905698771935 l 1.1677192941810222 2.487084017093194 a23.74757261197644,23.74757261197644 0 0,0 -0.37151607742244563,0.17054480943173642 l -1.124735220991157 -2.5068158968590044" fill="#ff1202" stroke="none" /><path d="M 107.93186726928326 119.44442032107085 l 0.9436969598828219 2.3134073882878305 a23.498483079045524,23.498483079045524 0 0,0 -0.37584024815420114,0.14955459119928707 l -0.9037356356867544 -2.3293088238931867" fill="#ff0f01" stroke="none" /><path d="M 107.59598834532513 119.57807347666477 l 0.6566001419449392 1.6923361700124246 a22.81524804330825,22.81524804330825 0 0,0 -0.3673578468658758,0.13890330412324883 l -0.6273720743187886 -1.7033877242423043" fill="#ff0500" stroke="none" /><path d="M 106.91757812671514 119.82793768551818 l 1.572006538507773 4.505861316749653 a25.772210259711123,25.772210259711123 0 0,0 -0.4201241724288023,0.14252892955220944 l -1.4942126331417438 -4.532253233199985" fill="#ff2f04" stroke="none" /><path d="M 106.2309692047433 120.05430185196036 l 0.5258959799748445 1.6925900896957666 a22.772407344119863,22.772407344119863 0 0,0 -0.3753380987638391,0.11308629021217162 l -0.4966829067707596 -1.7013917490136639" fill="#ff0400" stroke="none" /><path d="M 105.53697534728816 120.25689768951611 l 0.4114095595878338 1.5051324657136707 a22.56034661696226,22.56034661696226 0 0,0 -0.3754788931482672,0.09916738835501145 l -0.3854402236280692 -1.5119912033722662" fill="#ff0100" stroke="none" /><path d="M 104.83641907484287 120.43548508189849 l 0.6589433775246495 2.784255738148226 a23.861168710543808,23.861168710543808 0 0,0 -0.40050386582877123,0.09115337593398935 l -0.6109193623030162 -2.7951858476599" fill="#ff1402" stroke="none" /><path d="M 104.48393922423573 120.51570834832081 l 0.4741285037508362 2.169316223110904 a23.220524873520034,23.220524873520034 0 0,0 -0.39121999858775713,0.08198395446486187 l -0.436717043733701 -2.177156158302307" fill="#ff0b01" stroke="none" /><path d="M 103.41894727170886 120.7198165907248 l 1.2007923910176437 7.277151745305459 a28.37555692070288,28.37555692070288 0 0,0 -0.4826062515338195,0.07537317119073114 l -1.075350275875307 -7.296743223843296" fill="#ff5407" stroke="none" /><path d="M 102.70371172650421 120.8252237178851 l 1.5132111775112387 11.65544425286082 a32.753262900118045,32.753262900118045 0 0,0 -0.5597260885924278,0.06777503437353376 l -1.3123576658674305 -11.679764815959704" fill="#ff900d" stroke="none" /><path d="M 101.98527174616119 120.90594882070398 l 1.5440470607229457 16.259622336664943 a37.33277073422329,37.33277073422329 0 0,0 -0.640267119732514,0.05524494119405812 l -1.26393562324889 -16.283791530137666" fill="#ffcc13" stroke="none" /><path d="M 100.90346689309514 120.98055641714683 l 0.07501787255190112 1.7420856474081623 a22.743700113009037,22.743700113009037 0 0,0 -0.3912779037354798,0.013476402144887857 l -0.045019617141769025 -1.743118847979144" fill="#ff0400" stroke="none" /><line stroke="#e1ed5e" stroke-width="0.3" x1="102.19456741930631" x2="102.32365962044197" y1="184.97166512339345" y2="189.96999836594603" /><path d="M 102.22038585953345 185.97133177190398 a86.0,86.0 0 0,1 -42.740103519485714,-10.115201625700543" fill="none" id="id31" stroke="none" /><text fill="#e1ed5e" style="font-size:6.75px; font-family:Arial;" text-anchor="middle"><textPath startOffset="22.20632615414155" xlink:href="#id31">July</textPath></text><path d="M 100.54218724476979 120.99299961872073 l 0.04983081897705965 1.92940423050733 a22.930047614754493,22.930047614754493 0 0,0 -0.39465921526917874,0.006794416298702889 l -0.016611913815212962 -1.9299761240851927" fill="#ff0601" stroke="none" /><path d="M 100.18074693466247 120.99922214144158 l 0.019269446116738753 2.238728863112342 a23.238811790679584,23.238811790679584 0 0,0 -0.40003276155838685,0.0 l 0.01926944611673721 -2.238728863112342" fill="#ff0b01" stroke="none" /><path d="M 99.81925306533755 120.99922214144158 l -0.029725252926408992 3.453487001469372 a24.453614926418325,24.453614926418325 0 0,0 -0.42088200772618684,-0.007245865451729453 l 0.08916695054526376 -3.452463658738483" fill="#ff1c02" stroke="none" /><path d="M 99.45781275523022 120.99299961872073 l -0.05027984427238944 1.946790083724303 a22.947439265504148,22.947439265504148 0 0,0 -0.3947829898956584,-0.013597124399316119 l 0.08378318584269087 -1.945636160898893" fill="#ff0701" stroke="none" /><path d="M 99.09653310690486 120.98055641714683 l -0.17423222764351984 4.046068660288038 a25.049818325914714,25.049818325914714 0 0,0 -0.43063253808236446,-0.0222587833587288 l 0.24385283413937323 -4.042470070167107" fill="#ff2503" stroke="none" /><path d="M 98.73552117531835 120.96189622390904 l -0.13161331468625678 2.1818195688904347 a23.185785601516294,23.185785601516294 0 0,0 -0.39817417659535576,-0.02746042245715187 l 0.1691502520605426 -2.1792308019169977" fill="#ff0a01" stroke="none" /><path d="M 98.37488393609728 120.93702456842531 l -0.61139801611465 7.876886807541397 a28.900579302363127,28.900579302363127 0 0,0 -0.49565275506225104,-0.04276700530479611 l 0.7468950889184426 -7.865195549957938" fill="#ff5c08" stroke="none" /><path d="M 97.2962882734958 120.8252237178851 l -0.26820780116820164 2.0658590956483676 a23.083196876841114,23.083196876841114 0 0,0 -0.39359203931439235,-0.05454827023014218 l 0.30372843166942504 -2.0609362599256205" fill="#ff0901" stroke="none" /><path d="M 96.93821686468263 120.77559828337769 l -0.36379536656062905 2.4685178730773654 a23.495180866877867,23.495180866877867 0 0,0 -0.39960171350857737,-0.06240956942573058 l 0.40623294367772356 -2.4618899963045293" fill="#ff0f01" stroke="none" /><path d="M 96.58105272829116 120.7198165907248 l -1.9304929635534906 11.699349816097257 a32.857554098621875,32.857554098621875 0 0,0 -0.5572500803398543,-0.09688506933855268 l 2.1315920153653947 -11.664386168237698" fill="#ff920d" stroke="none" /><path d="M 95.86986931433489 120.58985236759428 l -0.3128066863370374 1.5594284978996475 a22.590492144928326,22.590492144928326 0 0,0 -0.3806051910184766,-0.07975951833288028 l 0.3396033387849008 -1.553812998840226" fill="#ff0100" stroke="none" /><path d="M 95.16358092515715 120.4354850818985 l -1.1692646009999854 4.9405332624744895 a26.07701178103503,26.07701178103503 0 0,0 -0.4359166347354737,-0.10713770301894852 l 1.2541345204786696 -4.919674301141511" fill="#ff3404" stroke="none" /><path d="M 94.81253420990036 120.34920634021253 l -2.3542901743903943 9.235325779851527 a30.5306833168048,30.5306833168048 0 0,0 -0.5081316955580523,-0.13420219913399534 l 2.5129123127599358 -9.193432231413949" fill="#ff720a" stroke="none" /><path d="M 94.46302465271185 120.25689768951611 l -0.8445048407220961 3.089601647799847 a24.202940331646936,24.202940331646936 0 0,0 -0.4009261229335118,-0.11330572708380848 l 0.8975621317602218 -3.0746071273775173" fill="#ff1902" stroke="none" /><path d="M 94.11515582081647 120.15858648285463 l -3.7020098925738507 12.681268068883202 a34.210580497449435,34.210580497449435 0 0,0 -0.5638637166235101,-0.16988751237406557 l 3.919748583637607 -12.61566518740341" fill="#ffa30f" stroke="none" /><path d="M 93.76903079525671 120.05430185196036 l -1.3458260133913398 4.3315253576000154 a25.535786545005482,25.535786545005482 0 0,0 -0.4186393449409214,-0.134035098055301 l 1.4201867034232014 -4.307717412885008" fill="#ff2c04" stroke="none" /><path d="M 93.42475214034765 119.94407469862007 l -1.5956679982373965 4.83998815410843 a26.096237994100047,26.096237994100047 0 0,0 -0.4254062915168564,-0.14432091113478554 l 1.6787440226914787 -4.811804256075521" fill="#ff3404" stroke="none" /><path d="M 93.08242187328487 119.8279376855182 l -0.9556625922205885 2.7392272237232578 a23.901147492520227,23.901147492520227 0 0,0 -0.38729014143849955,-0.13886846559662094 l 1.0026722942888147 -2.722371217086679" fill="#ff1402" stroke="none" /><line stroke="#e1ed5e" stroke-width="0.3" x1="58.666819895761336" x2="56.23545636021788" y1="174.27360380694188" y2="178.64263932499728" /><path d="M 58.180547188652646 175.14741091055294 a86.0,86.0 0 0,1 -31.652253787137756,-30.449443065178592" fill="none" id="id32" stroke="none" /><text fill="#e1ed5e" style="font-size:6.75px; font-family:Arial;" text-anchor="middle"><textPath startOffset="22.20632615414155" xlink:href="#id32">August</textPath></text><line stroke="#e1ed5e" stroke-width="0.3" x1="26.63291911575756" x2="22.317208475507996" y1="142.92168965132927" y2="145.44649492493687" /><path d="M 25.769776987707644 143.4266507060508 a86.0,86.0 0 0,1 -11.730757126820373,-40.83630448921669" fill="none" id="id33" stroke="none" /><text fill="#e1ed5e" style="font-size:6.75px; font-family:Arial;" text-anchor="middle"><textPath startOffset="21.46611528233685" xlink:href="#id33">September</textPath></text><line stroke="#e1ed5e" stroke-width="0.3" x1="15.007084014347285" x2="10.007500721073583" y1="101.09737516637583" y2="101.16192664675087" /><path d="M 14.007167355692545 101.11028546245083 a86.0,86.0 0 0,1 10.666146001902534,-42.60595125391555" fill="none" id="id34" stroke="none" /><text fill="#e1ed5e" style="font-size:6.75px; font-family:Arial;" text-anchor="middle"><textPath startOffset="22.20632615414155" xlink:href="#id34">October</textPath></text><line stroke="#e1ed5e" stroke-width="0.3" x1="26.266209847984243" x2="21.928928074336255" y1="57.711370442889674" y2="55.22380399835377" /><path d="M 25.398753493254645 57.213857153982495 a86.0,86.0 0 0,1 29.58750427330803,-30.492523968695096" fill="none" id="id35" stroke="none" /><text fill="#e1ed5e" style="font-size:6.75px; font-family:Arial;" text-anchor="middle"><textPath startOffset="21.46611528233685" xlink:href="#id35">November</textPath></text><line stroke="#e1ed5e" stroke-width="0.3" x1="56.762969772571076" x2="54.21961505331055" y1="26.818313649435495" y2="22.513508569990535" /><path d="M 56.25429882871897 25.957352633546506 a86.0,86.0 0 0,1 42.265352541879196,-11.944610805530505" fill="none" id="id36" stroke="none" /><text fill="#e1ed5e" style="font-size:6.75px; font-family:Arial;" text-anchor="middle"><textPath startOffset="22.20632615414155" xlink:href="#id36">December</textPath></text></svg>