<?xml version="1.0" encoding="utf-8" ?>
<svg baseProfile="full" height="200mm" version="1.1" viewBox="0,0,200,200" width="200mm" xmlns="http://www.w3.org/2000/svg" xmlns:ev="http://www.w3.org/2001/xml-events" xmlns:xlink="http://www.w3.org/1999/xlink"><defs /><rect fill="#1a1a1a" height="200" width="200" x="0" y="0" /><text alignment-baseline="middle" fill="#e1ed5e" style="dominant-baseline: central; font-size:9.0px; font-family:Arial;" text-anchor="middle" x="100.0" y="100.0">2024</text><line stroke="#e1ed5e" stroke-width="0.3" x1="100.0" x2="100.0" y1="15.0" y2="10.0" /><path d="M 100.0 14.0 a86.0,86.0 0 0,1 42.35913384403234,11.155469271406648" fill="none" id="id13" stroke="none" /><text fill="#e1ed5e" style="font-size:6.75px; font-family:Arial;" text-anchor="middle"><textPath startOffset="22.145653131862478" xlink:href="#id13">January</textPath></text><path d="M 100.36049292484886 79.00309439819443 l 0.38786366992009436 -22.59111428357889 a43.59444362670092,43.59444362670092 0 0,0 0.7481360506455541,0.019269330843360136 l -0.7756130346363899 22.581127235385484" fill="#e3ff1b" stroke="none" /><path d="M 101.08105385017728 79.02784411241856 l 0.20347626672123842 -3.947385215270387 a24.952626042121118,24.952626042121118 0 0,0 0.4275877814468517,0.02572261913771487 l -0.2712084003005525 3.9433106183079802" fill="#ff2603" stroke="none" /><path d="M 101.80034050326958 79.07731436759882 l 2.207559096981632 -25.655182959674807 a46.749985045841385,46.749985045841385 0 0,0 0.7989804783188852,0.07566428199366966 l -2.64763913868553 25.613506922175954" fill="#beff1e" stroke="none" /><path d="M 103.23170211078529 79.25015418208739 l 2.8017183483970016 -17.989041613841017 a39.20591233331217,39.20591233331217 0 0,0 0.6641154776327726,0.1092799491188947 l -3.1101113290828444 17.938295666226452" fill="#ffe515" stroke="none" /><path d="M 103.58742460773223 79.30868818359171 l 0.24632613435024872 -1.4207436843093408 a22.441939381863474,22.441939381863474 0 0,0 0.37901792430951003,0.06906969156054422 l -0.2706787922108124 1.4163058188174307" fill="#ff0200" stroke="none" /><path d="M 104.29559338865022 79.4440306129975 l 2.6740624680619787 -12.796356931186805 a34.0727717333942,34.0727717333942 0 0,0 0.5715100368789833,0.1245579525388246 l -2.893334921560096 12.748567520514262" fill="#ffa40f" stroke="none" /><path d="M 106.72888874123014 80.10723608172694 l 16.680610035835198 -49.31325962078308 a73.0580476544632,73.0580476544632 0 0,0 1.1845639777145098,0.41205284179396356 l -17.524679785594724 49.019648346420524" fill="#3fffc1" stroke="none" /><path d="M 107.40779381753099 80.34994680014964 l 0.46958394103147166 -1.2456271935143142 a22.33120103023435,22.33120103023435 0 0,0 0.3575413903903781,0.13830469066686835 l -0.49089759391537563 1.2373826147094076" fill="#ff0000" stroke="none" /><path d="M 108.07796709384702 80.6158196554323 l 4.606036436111596 -11.052810677979206 a32.97414696477535,32.97414696477535 0 0,0 0.5206224076045206,0.22222274768439104 l -4.795093918886547 10.972113280635412" fill="#ff950d" stroke="none" /><path d="M 109.06512990194946 81.05736502329252 l 9.675346777530654 -20.217753552589752 a43.413609570498195,43.413609570498195 0 0,0 0.6694786905687654,0.32747557556219087 l -10.020985717361487 20.048684226930337" fill="#e5ff1a" stroke="none" /><path d="M 110.02825361518725 81.54914285379988 l 5.867099037126333 -10.794801403175807 a33.286195035301006,33.286195035301006 0 0,0 0.49969840185943826,0.2771742801022274 l -6.051541627141871 10.692494207640433" fill="#ff990e" stroke="none" /><line stroke="#e1ed5e" stroke-width="0.3" x1="143.13028292997686" x2="145.6673583964461" y1="26.7553504044142" y2="22.446841604673864" /><path d="M 143.63769802327073 25.89364864446614 a86.0,86.0 0 0,1 29.32050498858742,28.57503671076993" fill="none" id="id14" stroke="none" /><text fill="#e1ed5e" style="font-size:6.75px; font-family:Arial;" text-anchor="middle"><textPath startOffset="20.669276256404974" xlink:href="#id14">February</textPath></text><path d="M 110.96478420261332 82.08984904055464 l 6.957060992676896 -11.363836288106299 a34.324318850834665,34.324318850834665 0 0,0 0.49988609330689104,0.31196589363910865 l -7.1511112147735 11.242734597625645" fill="#ffa70f" stroke="none" /><path d="M 111.8722381534696 82.67804972795209 l 5.0969906317468245 -7.4366616571290995 a30.015722383854165,30.015722383854165 0 0,0 0.4225140418396628,0.2949476152982099 l -5.223899764760247 7.348069226025763" fill="#ff6d0a" stroke="none" /><path d="M 112.45986205192187 83.09580414077388 l 8.51630273829603 -11.554000267797063 a35.353478133141216,35.353478133141216 0 0,0 0.4854318929190405,0.36427714228807023 l -8.713387620125836 11.406104098244978" fill="#ffb410" stroke="none" /><path d="M 113.31354834802062 83.75963576809568 l 7.251322692173017 -8.845434635873863 a32.437805501211336,32.437805501211336 0 0,0 0.4276008145809452,0.35671980767339373 l -7.402097840915854 8.7196526442886" fill="#ff8e0d" stroke="none" /><path d="M 113.59037401385872 83.9905735841838 l 4.249631302143009 -5.006054988378549 a27.566578466052427,27.566578466052427 0 0,0 0.3581299180126837,0.309344093495093 l -4.334940699918554 4.932366762418736" fill="#ff4b07" stroke="none" /><path d="M 113.86319453409587 84.22622945171908 l 0.897228298862798 -1.0208811021787485 a22.359123557689266,22.359123557689266 0 0,0 0.2861275461680217,0.2558570161334476 l -0.9146208718541953 1.005328556161914" fill="#ff0000" stroke="none" /><path d="M 114.13192950727249 84.46653392183569 l 9.397252773202371 -10.329226954136395 a34.96428620279309,34.96428620279309 0 0,0 0.44050043792937854,0.4077206290577466 l -9.573182982445715 10.166388578946274" fill="#ffaf10" stroke="none" /><path d="M 114.39649973595853 84.71141617570332 l 5.29132982354024 -5.619208907227459 a28.718398800564195,28.718398800564195 0 0,0 0.3560090176037847,0.3410485856146422 l -5.387011327009337 5.527548191307237" fill="#ff5b08" stroke="none" /><path d="M 116.35404254752997 86.82634096563983 l 3.525383600475997 -2.8397994797323185 a25.526896355737897,25.526896355737897 0 0,0 0.2719630303005815,0.3436164044535326 l -3.573613061418138 2.7788631313641075" fill="#ff2e04" stroke="none" /><path d="M 117.42321728460499 88.27688183743584 l 9.539848546998952 -6.418835852334388 a32.498267869505014,32.498267869505014 0 0,0 0.3074576953846907,0.46553013782258845 l -9.648630681304368 6.254125836172741" fill="#ff8f0d" stroke="none" /><line stroke="#e1ed5e" stroke-width="0.3" x1="172.87174338648825" x2="177.1583165268699" y1="56.24261187166439" y2="53.66864786411523" /><path d="M 173.72905801456457 55.72781907015455 a86.0,86.0 0 0,1 12.242430191666344,42.057860355516425" fill="none" id="id15" stroke="none" /><text fill="#e1ed5e" style="font-size:6.75px; font-family:Arial;" text-anchor="middle"><textPath startOffset="22.145653131862474" xlink:href="#id15">March</textPath></text><path d="M 118.36410011445183 89.81374322990088 l 16.385672557908784 -9.088856354811258 a39.737597898700834,39.737597898700834 0 0,0 0.32576248920842815,0.5993662887496786 l -16.53928039673255 8.806235232586976" fill="#ffec16" stroke="none" /><path d="M 119.31412917781788 91.75594674310238 l 4.948006925284816 -2.1120099297251813 a26.3799032032114,26.3799032032114 0 0,0 0.1742005141864125,0.4180178185768883 l -4.983533284007712 2.0267596017070155" fill="#ff3a05" stroke="none" /><path d="M 119.71291397450082 92.76114493625339 l 4.763501226533774 -1.7492236317502805 a26.074517440019534,26.074517440019534 0 0,0 0.15068566679557177,0.4214946285772751 l -4.792827063373289 1.6671940467920885" fill="#ff3605" stroke="none" /><path d="M 120.51834098615036 95.52812308129327 l 15.714196166289266 -3.4248359153155463 a37.08307999729702,37.08307999729702 0 0,0 0.1302186289849436,0.6231432793673051 l -15.770672506098576 3.154576184662837" fill="#ffcb12" stroke="none" /><path d="M 120.7213421655516 96.59031103205396 l 41.95569830466887 -6.903794190017604 a63.51991291677954,63.51991291677954 0 0,0 0.16780904705382207,1.0774544601734557 l -42.068028843860965 6.182551547912707" fill="#33ff57" stroke="none" /><line stroke="#e1ed5e" stroke-width="0.3" x1="184.99686870605535" x2="189.99668451229388" y1="99.2704041080226" y2="99.22748670261217" /><path d="M 185.99683186730306 99.26182062694052 a86.0,86.0 0 0,1 -10.086455211305974,41.156179273409016" fill="none" id="id16" stroke="none" /><text fill="#e1ed5e" style="font-size:6.75px; font-family:Arial;" text-anchor="middle"><textPath startOffset="21.40746469413373" xlink:href="#id16">April</textPath></text><path d="M 120.98066250479742 100.90099992219065 l 3.4898132314566364 0.14986759590090784 a24.493029728867324,24.493029728867324 0 0,0 -0.021645319102890016,0.41991340800259636 l -3.486726322897174 -0.20975279728023485" fill="#ff1f03" stroke="none" /><path d="M 120.96210409425399 101.26102812881392 l 9.017503682201786 0.5424706290842497 a30.033805789474435,30.033805789474435 0 0,0 -0.035377018398538226,0.5143740833264681 l -9.006862702638182 -0.6971881365650613" fill="#ff6d0a" stroke="none" /><path d="M 120.93736805541906 101.62068470465957 l 8.545495429972984 0.6614753917702132 a29.571058384914124,29.571058384914124 0 0,0 -0.043520680365299595,0.5057762751755591 l -8.532881126909944 -0.8080727143214296" fill="#ff6709" stroke="none" /><path d="M 120.592083275326 104.11899336999214 l 19.029842836880224 3.806501529207759 a40.40681252262263,40.40681252262263 0 0,0 -0.14189004065280614,0.6789952092965831 l -18.961695085403054 -4.132613189789751" fill="#fff417" stroke="none" /><path d="M 120.51834098615036 104.47187691870673 l 2.7369178907858385 0.5964985157650889 a23.801165832330096,23.801165832330096 0 0,0 -0.0904321197945134,0.3984606056605258 l -2.726274909433661 -0.6433934553646317" fill="#ff1502" stroke="none" /><path d="M 118.8641267826498 109.22738970284198 l 3.926873118980899 1.9208304206149653 a25.371489677139206,25.371489677139206 0 0,0 -0.1947323289575683,0.3895951039308459 l -3.893320876811598 -1.9879573807095572" fill="#ff2c04" stroke="none" /><line stroke="#e1ed5e" stroke-width="0.3" x1="174.33088141563837" x2="178.70328620479359" y1="141.23008692659167" y2="143.65538615756765" /><path d="M 175.20536237346943 141.71514677278685 a86.0,86.0 0 0,1 -30.301960400862466,31.631185727798858" fill="none" id="id17" stroke="none" /><text fill="#e1ed5e" style="font-size:6.75px; font-family:Arial;" text-anchor="middle"><textPath startOffset="22.145653131862474" xlink:href="#id17">May</textPath></text><path d="M 112.7482090630111 116.68781488649013 l 9.26227103778886 12.124610111360289 a36.257648414154865,36.257648414154865 0 0,0 -0.49784688330218324,0.3735935825225799 l -9.05277116557591 -12.281822721146883" fill="#ffc011" stroke="none" /><line stroke="#e1ed5e" stroke-width="0.3" x1="143.1302829299769" x2="145.66735839644613" y1="173.24464959558577" y2="177.55315839532614" /><path d="M 143.63769802327073 174.10635135553383 a86.0,86.0 0 0,1 -40.68552437913181,11.842963189579606" fill="none" id="id18" stroke="none" /><text fill="#e1ed5e" style="font-size:6.75px; font-family:Arial;" text-anchor="middle"><textPath startOffset="21.407464694133747" xlink:href="#id18">June</textPath></text><path d="M 105.69591212413111 120.21278271476187 l 1.757625562862979 6.237193064399649 a27.480109948282088,27.480109948282088 0 0,0 -0.4551473021129535,0.12405242114103752 l -1.6502968598153305 -6.266445979684828" fill="#ff4a06" stroke="none" /><path d="M 104.9986988182912 120.39639698878246 l 1.8734470416785887 7.644303245419203 a28.870525771884672,28.870525771884672 0 0,0 -0.48236853323707085,0.11383766042252826 l -1.7419463547016387 -7.675337049487957" fill="#ff5d08" stroke="none" /><path d="M 101.80034050326958 120.92268563240118 l 0.11862877841076643 1.3786462244984503 a22.383740654671627,22.383740654671627 0 0,0 -0.38311478115233544,0.029655507048407827 l -0.09494500248319519 -1.3804794985419118" fill="#ff0100" stroke="none" /><path d="M 101.08105385017728 120.97215588758144 l 0.6825452860661781 13.241196206244803 a34.258776151659056,34.258776151659056 0 0,0 -0.5875775544366781,0.025233108378121993 l -0.4551419710286705 -13.250961883048756" fill="#ffa60f" stroke="none" /><line stroke="#e1ed5e" stroke-width="0.3" x1="101.45913802915013" x2="101.54496967792366" y1="184.9874750549273" y2="189.98673829345242" /><path d="M 101.47630435890484 185.9873277026323 a86.0,86.0 0 0,1 -42.54439059252881,-10.42667462771756" fill="none" id="id19" stroke="none" /><text fill="#e1ed5e" style="font-size:6.75px; font-family:Arial;" text-anchor="middle"><textPath startOffset="22.145653131862474" xlink:href="#id19">July</textPath></text><path d="M 98.55909050195518 120.95050786540614 l -1.0032283949540286 14.58672068426421 a35.62117941662653,35.62117941662653 0 0,0 -0.6096836345242734,-0.04719336922097059 l 1.2534810242535381 -14.567349548048186" fill="#ffb811" stroke="none" /><path d="M 96.41257539226777 120.69131181640829 l -4.519607345793198 26.067894131621227 a47.456794118289544,47.456794118289544 0 0,0 -0.8014893586083707,-0.1460580601537269 l 4.966431437952626 -25.986467897536134" fill="#b6ff1f" stroke="none" /><path d="M 95.00130118170881 120.39639698878247 l -1.6080282674108988 6.561304072028243 a27.75547674368041,27.75547674368041 0 0,0 -0.4617912694403828,-0.11738553487103452 l 1.7204248300766602 -6.532733305321945" fill="#ff4e07" stroke="none" /><path d="M 94.30408787586889 120.21278271476187 l -5.44542493977947 19.323892064802163 a41.076490164042525,41.076490164042525 0 0,0 -0.6770578950851777,-0.1970816857118079 l 5.776342847246255 -19.227566684787842" fill="#fffc17" stroke="none" /><path d="M 93.61358852112213 120.00534299687104 l -2.2462988795888106 7.036499246609319 a28.386350946440025,28.386350946440025 0 0,0 -0.46293713144319826,-0.15217663020519387 l 2.3667587486797523 -6.996901695002103" fill="#ff5708" stroke="none" /><path d="M 93.27111125876986 119.89276391827306 l -3.216001051993706 9.507535664281631 a31.036727413555266,31.036727413555266 0 0,0 -0.5032298351870289,-0.17504945918108966 l 3.378736659225757 -9.450927772531951" fill="#ff7b0b" stroke="none" /><path d="M 92.59220618246901 119.65005319985036 l -2.8079851140997456 7.448514123849948 a28.960222550544547,28.960222550544547 0 0,0 -0.46367762408826174,-0.1793604659271935 l 2.9354350006815357 -7.399213769784715" fill="#ff5f08" stroke="none" /><path d="M 92.25597844496254 119.51999308798841 l -2.4002151906240647 6.0501102169827154 a27.50882989476151,27.50882989476151 0 0,0 -0.43745004862984005,-0.17790712649053173 l 2.5037197004443454 -6.008015833912892" fill="#ff4a06" stroke="none" /><path d="M 91.59046798132341 119.24265499422711 l -3.1462460222992785 7.199226615655588 a28.85669955492749,28.85669955492749 0 0,0 -0.45220728863563797,-0.20226656836221835 l 3.2693667137905513 -7.144156296383515" fill="#ff5d08" stroke="none" /><path d="M 91.26138138417905 119.09545874513695 l -4.7568130985565755 10.394495088430036 a32.43122036346057,32.43122036346057 0 0,0 -0.5042456891233636,-0.2360124433671772 l 4.934547501551429 -10.311306413492332" fill="#ff8e0d" stroke="none" /><path d="M 90.93487009805054 118.94263497670748 l -4.949554563869728 10.342665401906508 a32.46598526060964,32.46598526060964 0 0,0 -0.5006560273455788,-0.2448959511681936 l 5.126370840477376 -10.256175700641094" fill="#ff8e0d" stroke="none" /><path d="M 90.28995756902619 118.62028667847754 l -3.664590724414379 7.027335908463391 a28.925444791798306,28.925444791798306 0 0,0 -0.4383047638618364,-0.23337259914242472 l 3.7846843040627776 -6.963392841598393" fill="#ff5e08" stroke="none" /><line stroke="#e1ed5e" stroke-width="0.3" x1="58.13341422392154" x2="55.67067388415222" y1="173.97424548756322" y2="178.32567169271397" /><path d="M 57.64086615596768 174.84453072859336 a86.0,86.0 0 0,1 -31.369924170532247,-30.572349798747897" fill="none" id="id20" stroke="none" /><text fill="#e1ed5e" style="font-size:6.75px; font-family:Arial;" text-anchor="middle"><textPath startOffset="22.145653131862474" xlink:href="#id20">August</textPath></text><path d="M 89.03521579738668 117.91015095944536 l -1.9544604506158834 3.192464262675879 a24.743226378604998,24.743226378604998 0 0,0 -0.36035077124066783,-0.22488553268198289 l 2.008975350646264 -3.1584429331523483" fill="#ff2303" stroke="none" /><path d="M 88.72937992617639 117.7192867562869 l -4.2171094285313035 6.629996464909391 a28.857535558743507,28.857535558743507 0 0,0 -0.4157056725797216,-0.269455394552727 l 4.330300733368035 -6.556627228652769" fill="#ff5d08" stroke="none" /><path d="M 87.83215693770417 117.11559508785305 l -3.673452753349977 5.16717133667848 a27.339867092746204,27.339867092746204 0 0,0 -0.3801790649968635,-0.27522032448426004 l 3.761612828720794 -5.103350240821155" fill="#ff4806" stroke="none" /><path d="M 86.68645165197938 116.24036423190432 l -4.123367809431461 5.029838277278828 a27.503955349434285,27.503955349434285 0 0,0 -0.3625619406089866,-0.30246206581827567 l 4.209104084202341 -4.958314027548682" fill="#ff4a06" stroke="none" /><path d="M 86.13680546590413 115.77377054828092 l -2.420766492075279 2.754387894005897 a24.666982830584388,24.666982830584388 0 0,0 -0.3156609985393079,-0.2822660113561566 l 2.467692517437958 -2.7124263527663577" fill="#ff2203" stroke="none" /><path d="M 83.4222238831116 112.89097897827486 l -6.026589720790917 4.686312618389066 a28.634219647090024,28.634219647090024 0 0,0 -0.2984067785604022,-0.39062405212184187 l 6.106148476705614 -4.582167653026354" fill="#ff5a08" stroke="none" /><path d="M 83.20337586046588 112.60449989151573 l -10.296324634381588 7.726553958638091 a33.872992544560844,33.872992544560844 0 0,0 -0.34501736647302544,-0.4680823201244683 l 10.427444020438443 -7.548665329244743" fill="#ffa10e" stroke="none" /><path d="M 82.98947788004972 112.3143062007846 l -9.203720664690932 6.662783990537746 a32.362269341035045,32.362269341035045 0 0,0 -0.321904259173761,-0.45279865370270994 l 9.316740022394653 -6.503808110125532" fill="#ff8d0d" stroke="none" /><path d="M 82.18462484594161 111.11811171558189 l -8.110313364988263 5.061435375935667 a30.56008948405193,30.56008948405193 0 0,0 -0.27392323095276555,-0.447433011631343 l 8.196004560396434 -4.921465248179767" fill="#ff740a" stroke="none" /><line stroke="#e1ed5e" stroke-width="0.3" x1="26.387840678322732" x2="22.057713659400548" y1="142.50000000000003" y2="145.00000000000006" /><path d="M 25.521815274538298 143.00000000000003 a86.0,86.0 0 0,1 -11.493303480769221,-40.785679425670985" fill="none" id="id21" stroke="none" /><text fill="#e1ed5e" style="font-size:6.75px; font-family:Arial;" text-anchor="middle"><textPath startOffset="21.40746469413373" xlink:href="#id21">September</textPath></text><path d="M 81.81346652052679 110.50000000000001 l -11.155923864307008 6.440875646116629 a33.88175129223325,33.88175129223325 0 0,0 -0.2864889792449726,-0.5061985754820724 l 11.26484620857336 -6.248420300535435" fill="#ffa10e" stroke="none" /><path d="M 81.63589988554817 110.18625677009913 l -5.627086297536888 3.121249913526087 a27.43477281825971,27.43477281825971 0 0,0 -0.2249058915671599,-0.4138015088050736 l 5.679837538719378 -3.0241935712464265" fill="#ff4906" stroke="none" /><path d="M 80.83023694016515 108.57439118712176 l -7.5767499901433215 3.3889838982219294 a29.300141702136436,29.300141702136436 0 0,0 -0.20142608161381834,-0.46090229357895585 l 7.633809953774108 -3.2584195348671243" fill="#ff6309" stroke="none" /><path d="M 80.68587082218212 108.24405325689762 l -9.531122411994994 4.068269402109004 a31.363064718536194,31.363064718536194 0 0,0 -0.20710697679002638,-0.496981349648475 l 9.599555233321507 -3.904055543019248" fill="#ff7f0b" stroke="none" /><path d="M 79.48165901384964 104.47187691870673 l -10.80587002921146 2.3550890787316905 a32.05953306686009,32.05953306686009 0 0,0 -0.1125782551548653,-0.53872770470316 l 10.844705995190692 -2.1692449227431214" fill="#ff890c" stroke="none" /><path d="M 79.34024301695615 103.76489593502545 l -1.693392142216035 0.3085924581719784 a22.721280410787166,22.721280410787166 0 0,0 -0.0666330571861166,-0.38432176680364094 l 1.6984400168943858 -0.27947765844774475" fill="#ff0600" stroke="none" /><line stroke="#e1ed5e" stroke-width="0.3" x1="15.003131293944662" x2="10.003315487706104" y1="100.72959589197737" y2="100.7725132973878" /><path d="M 14.003168132696942 100.73817937305945 a86.0,86.0 0 0,1 10.791469493833604,-42.45332614584628" fill="none" id="id22" stroke="none" /><text fill="#e1ed5e" style="font-size:6.75px; font-family:Arial;" text-anchor="middle"><textPath startOffset="22.145653131862435" xlink:href="#id22">October</textPath></text><path d="M 79.407916724674 95.88100663000787 l -8.298705791932688 -1.6599735771972246 a29.4630981382736,29.4630981382736 0 0,0 0.10346077632964913,-0.4950972679600117 l 8.268987304778673 1.8021872964426453" fill="#ff6509" stroke="none" /><path d="M 79.56144815229197 95.17655741523228 l -18.88445426974315 -4.456679787956316 a40.403211275415174,40.403211275415174 0 0,0 0.16509997601085555,-0.67366424262925 l 18.805166767215994 4.7801998551936835" fill="#fff417" stroke="none" /><path d="M 79.83685265289637 94.1308016681162 l -3.093871971950252 -0.9005810404614669 a24.22228024685284,24.22228024685284 0 0,0 0.11963924024318887,-0.3982401202154997 l 3.0779564117034335 0.95355876426769" fill="#ff1c02" stroke="none" /><path d="M 79.94057633289273 93.78553927170692 l -25.65606619397072 -7.948314889343528 a47.859066292959014,47.859066292959014 0 0,0 0.2498591588411263,-0.7826802563627933 l 25.515842319352334 8.387564179397712" fill="#b2ff20" stroke="none" /><path d="M 80.05021161711548 93.44210830539832 l -59.41514808640716 -19.5309393107979 a83.54292455979143,83.54292455979143 0 0,0 0.45954408148266773,-1.3585604212714386 l 59.071118583352124 20.548001406543502" fill="#4cd6ff" stroke="none" /><path d="M 80.28708602549916 92.7611449362534 l -16.438768506043953 -6.036543496088973 a38.51208061240801,38.51208061240801 0 0,0 0.23321690268396406,-0.618635542204063 l 16.332720919545554 6.31784731848718" fill="#ffdd14" stroke="none" /><path d="M 80.41425534168474 92.42381321644754 l -46.13219145066286 -17.84492268546135 a70.46332331830024,70.46332331830024 0 0,0 0.44607083658212965,-1.1243899032244211 l 45.8190619391146 18.63421360589935" fill="#3cffa5" stroke="none" /><path d="M 80.5471966667186 92.08871423366112 l -1.346127765197947 -0.54745844318818 a22.45319327938676,22.45319327938676 0 0,0 0.14827036264181784,-0.35579489441008627 l 1.3365315580196506 0.5704858470395302" fill="#ff0200" stroke="none" /><path d="M 80.68587082218212 91.75594674310238 l -15.698470261462823 -6.70074346587469 a38.06874135797643,38.06874135797643 0 0,0 0.2617064955405143,-0.5988356774491328 l 15.581129883905332 6.96924121309969" fill="#ffd714" stroke="none" /><path d="M 80.83023694016515 91.42560881287825 l -27.102845864906328 -12.122758221090596 a50.69049546342886,50.69049546342886 0 0,0 0.36211246684329074,-0.791281090948057 l 26.89074893320799 12.586228294253324" fill="#92ff23" stroke="none" /><path d="M 80.9802524753101 91.09779779509293 l -11.743622010951094 -5.4966080713623215 a33.966316293622505,33.966316293622505 0 0,0 0.2517077783801002,-0.5259724480756649 l 11.647534974611089 5.697393021503073" fill="#ffa20f" stroke="none" /><path d="M 81.1358732173502 90.77261029715801 l -11.592609794161016 -5.67052636340905 a33.90517226067885,33.90517226067885 0 0,0 0.2602304098831899,-0.5206351412070827 l 11.493559471066082 5.868693360779903" fill="#ffa10e" stroke="none" /><path d="M 81.46374523516351 90.13048839642627 l -7.675703130447885 -4.086879581265338 a29.695918770235323,29.695918770235323 0 0,0 0.24344240541622902,-0.4479066064763027 l 7.6044153754163055 4.21804102121626" fill="#ff6909" stroke="none" /><line stroke="#e1ed5e" stroke-width="0.3" x1="26.387840678322718" x2="22.05771365940052" y1="57.49999999999999" y2="54.99999999999999" /><path d="M 25.521815274538284 56.99999999999999 a86.0,86.0 0 0,1 29.574782752854787,-30.34633250058573" fill="none" id="id23" stroke="none" /><text fill="#e1ed5e" style="font-size:6.75px; font-family:Arial;" text-anchor="middle"><textPath startOffset="21.40746469413373" xlink:href="#id23">November</textPath></text><path d="M 81.99639281039701 89.18935116829357 l -5.151660880342284 -3.0934243394058494 a27.00906681354747,27.00906681354747 0 0,0 0.24209388687973013,-0.39544217015610494 l 5.09779902900716 3.1814036256864973" fill="#ff4306" stroke="none" /><path d="M 83.2033758604659 87.39550010848427 l -11.43272187980836 -8.579327637307665 a35.293774599080535,35.293774599080535 0 0,0 0.36780822774817,-0.4814727769250794 l 11.283761674705884 8.77432132747363" fill="#ffb310" stroke="none" /><path d="M 83.42222388311158 87.10902102172516 l -6.157190012886896 -4.787868195451701 a28.7996583714809,28.7996583714809 0 0,0 0.30683096970262147,-0.3876709068422949 l 6.074092612542713 4.892859046208678" fill="#ff5c08" stroke="none" /><path d="M 85.08716467003674 85.21462403516908 l -10.26290633758131 -10.17518971647892 a35.45204941384802,35.45204941384802 0 0,0 0.4321910046617345,-0.4284970866474033 l 10.086723412789599 10.349866813354998" fill="#ffb610" stroke="none" /><path d="M 85.34317274990677 84.96080404539775 l -16.61483191143819 -17.048281227938205 a44.80538872340074,44.80538872340074 0 0,0 0.5554321650572293,-0.5320914497409435 l 16.31972726051566 17.330984807984716" fill="#d5ff1c" stroke="none" /><path d="M 86.40962598614128 83.9905735841838 l -7.541108945213886 -8.883407375613237 a32.65260703553864,32.65260703553864 0 0,0 0.430432365902977,-0.3590819884938483 l 7.387502245149 9.011551548018966" fill="#ff910d" stroke="none" /><path d="M 86.68645165197937 83.75963576809568 l -1.9355663581089788 -2.361076238205407 a24.05304735129697,24.05304735129697 0 0,0 0.3215654530707346,-0.2590303665697132 l 1.8947501346829987 2.3939548985685195" fill="#ff1902" stroke="none" /><path d="M 87.25179093698888 83.31218511350988 l -16.655465210890455 -21.802538608671505 a48.43638480510495,48.43638480510495 0 0,0 0.6650707993581269,-0.4990815266639893 l 16.278741422621575 22.085239162599493" fill="#abff21" stroke="none" /><path d="M 87.54013794807813 83.09580414077388 l -4.78587833720387 -6.492963118965105 a29.06617638802663,29.06617638802663 0 0,0 0.40418454576778895,-0.29259844131251633 l 4.673712781062112 6.574162331650701" fill="#ff6008" stroke="none" /><path d="M 88.4268655584334 82.4767994020092 l -4.247710806297494 -6.431575552571611 a28.707672228524856,28.707672228524856 0 0,0 0.4135468244564158,-0.26805605528166176 l 4.136678349584052 6.503545449557179" fill="#ff5b08" stroke="none" /><path d="M 89.03521579738668 82.08984904055464 l -3.5353667829659705 -5.774755946846444 a27.77101355306113,27.77101355306113 0 0,0 0.40871955268813037,-0.2454243479226318 l 3.435714473720406 5.834594295304999" fill="#ff4e07" stroke="none" /><line stroke="#e1ed5e" stroke-width="0.3" x1="56.869717070023135" x2="54.33264160355391" y1="26.7553504044142" y2="22.446841604673864" /><path d="M 56.362301976729285 25.89364864446614 a86.0,86.0 0 0,1 42.16139366436587,-11.88097634709845" fill="none" id="id24" stroke="none" /><text fill="#e1ed5e" style="font-size:6.75px; font-family:Arial;" text-anchor="middle"><textPath startOffset="22.145653131862474" xlink:href="#id24">December</textPath></text><path d="M 89.34428304082924 81.90426304109057 l -8.32304461304685 -14.134349344305855 a37.40283216452718,37.40283216452718 0 0,0 0.5560688535770808,-0.3210465023006924 l 8.07918329160937 14.275142743882721" fill="#ffcf13" stroke="none" /><path d="M 90.28995756902619 81.37971332152246 l -7.9686249065005486 -15.280888960792693 a38.23381995764656,38.23381995764656 0 0,0 0.5845637523002031,-0.2984824171061266 l 7.705133932486763 15.415429329571653" fill="#ffd914" stroke="none" /><path d="M 90.93487009805054 81.0573650232925 l -1.8465071454195203 -3.858489753141006 a25.277561433010575,25.277561433010575 0 0,0 0.39301948065161346,-0.18395296166189448 l 1.7799989508963843 3.8896189463734436" fill="#ff2b04" stroke="none" /><path d="M 92.93061703081487 80.22567764915836 l -2.883575632710324 -8.06587425420224 a29.56582371486615,29.56582371486615 0 0,0 0.47938058664985006,-0.16675345253283924 l 2.7446892740154696 8.114186139303666" fill="#ff6709" stroke="none" /><path d="M 93.61358852112211 79.99465700312896 l -8.41517119127946 -26.360403900644474 a48.671031783864734,48.671031783864734 0 0,0 0.7981107477417674,-0.24725674979400325 l 7.961419810666077 26.50097723824512" fill="#a9ff21" stroke="none" /><path d="M 98.5590905019552 79.04949213459386 l -1.7876977220787345 -25.992732533306146 a47.05413609570498,47.05413609570498 0 0,0 0.8063188871221998,-0.048506141982842116 l 1.3412344828240508 26.01959065311368" fill="#bbff1f" stroke="none" /><path d="M 98.9189461498227 79.02784411241856 l -3.24316155053188 -62.91646766274432 a84.0,84.0 0 0,0 1.4406969575967197,-0.061869726296685634 l 2.1626388323343404 62.96286995746683" fill="#4dd2ff" stroke="none" /><path d="M 99.63950707515114 79.00309439819443 l -0.057289880576623986 -3.336848330408782 a24.337340095130905,24.337340095130905 0 0,0 0.4177828054254753,-0.0035861629165581635 l 8.174125730336372e-16 3.337340095130905" fill="#ff1d03" stroke="none" /></svg>